<svg width="520" height="520" xmlns="http://www.w3.org/2000/svg" version="1.1">

 <g>
  <title>Layer 1</title>
  <path id="svg_106" d="m257.44,166.93l-13.63,-2.27a0.58,0.57 -62.6 0 1 -0.31,-0.98q2.19,-2.14 4.58,-4.07c16.76,-13.55 33.37,-26.16 47.37,-41.91q11.11,-12.5 22.39,-26.67l6.68,-3.25q1.04,-0.62 2.9,-0.27q0.68,0.13 0.56,0.81c-1.39,7.38 -3.78,13.46 -6.86,20.62c-8.03,18.63 -21.75,34.49 -38.51,44.96q-10.57,6.61 -25.27,11.91q-0.23,0.08 -0.18,0.33q0.05,0.27 0.28,0.79z" fill="#0477ae"/>
  <path id="svg_107" d="m324.52,87.78l-6.68,3.25q-14.5,4.22 -26.16,9.86q-11.4,5.51 -20.89,11.29c-21.72,13.23 -39.49,31.3 -51.67,54.08a1.31,1.3 -76.4 0 1 -1.11,0.68c-3.28,0.08 -6.56,0.62 -9.55,1.96q-42.16,18.98 -49.31,65.18q-0.53,3.44 -0.49,6.9q0,0.33 0.32,0.37q0.2,0.03 0.21,0.27q0.01,0.22 -0.19,0.33q-0.09,0.05 -0.25,0.1q-0.83,-0.14 -1.03,-1.55q-1.23,-8.64 -0.83,-16.75c0.84,-17.14 8.77,-33.04 21.51,-44.4c9.02,-8.04 20.85,-13.4 32.61,-15.81q1.25,-0.26 2.51,-0.53q0.47,-0.11 0.65,-0.55q1.52,-3.61 3.46,-7.01c20.06,-35.27 54.33,-56.05 93.62,-65.5q7.54,-1.81 13.27,-2.17z" fill="#feffff"/>
  <path id="svg_108" d="m317.84,91.03q-11.28,14.17 -22.39,26.67c-14,15.75 -30.61,28.36 -47.37,41.91q-2.39,1.93 -4.58,4.07a0.58,0.57 -62.6 0 0 0.31,0.98l13.63,2.27q6.5,1.12 10.14,3.52q5.67,10.57 10.06,20.59q2.9,6.63 3.98,12.78q3.25,18.46 -0.19,37.12q-13.02,-5.49 -27.95,-1.66a0.76,0.75 -9.6 0 1 -0.95,-0.67q-1.55,-18.58 -18.85,-24.96q-8.43,-3.11 -17.35,0.78q-13.24,5.76 -15.07,19.73c-0.69,5.34 -0.05,10.87 2.24,15.7q1,2.11 1.91,4.26q0.25,0.61 -0.39,0.78q-6.97,1.78 -13.18,4.58c-1.08,0.48 -2,0.04 -2.77,-0.76q-5.61,-5.8 -11.84,-9.72c-3.59,-2.27 -7.7,-3.63 -11.57,-5.21c-2.19,-0.91 -4.56,-0.99 -6.91,-1.74q0.16,-0.05 0.25,-0.1q0.2,-0.11 0.19,-0.33q-0.01,-0.24 -0.21,-0.27q-0.32,-0.04 -0.32,-0.37q-0.04,-3.46 0.49,-6.9q7.15,-46.2 49.31,-65.18c2.99,-1.34 6.27,-1.88 9.55,-1.96a1.31,1.3 -76.4 0 0 1.11,-0.68c12.18,-22.78 29.95,-40.85 51.67,-54.08q9.49,-5.78 20.89,-11.29q11.66,-5.64 26.16,-9.86z" fill="#0a9ee0"/>
  <path id="svg_110" d="m477.01,115.25q-11.92,3.86 -26.86,10.92q-28.5,13.46 -47.96,25.7q-23.58,14.82 -42.34,32.73q-10.34,9.89 -20.79,24.85c-4.82,6.9 -8.05,13.78 -12.02,20.86a1.13,1.13 0 0 1 -1.81,0.21q-3.02,-3.25 -2.63,-9.23q13.53,-25.31 34.06,-46.13q19.67,-19.94 44.01,-35.95q39.08,-25.68 82.72,-39.45a0.27,0.26 3.6 0 1 0.32,0.36l-6.7,15.13z" fill="#fba8a2"/>
  <path id="svg_112" d="m477.01,115.25q-11.24,23.01 -27.71,41.05q-2.07,2.27 -4.15,4.23q-1.39,0.83 -5.79,3.07c-3.88,1.97 -7.54,5.32 -11.27,7.47q-27.04,15.6 -52.29,32.29c-3.64,2.41 -6.44,4.82 -9.1,7.93q-0.54,0.62 0.28,0.54l4.29,-0.38q0.23,1.05 0.98,0.94q9.15,-1.38 15.78,-1.91q6.76,-0.53 13.5,-1.26q6.92,-0.75 13.49,-1.22q12.8,-0.92 25.51,-2.26q-2.31,2.52 -6.03,4.52q-6.9,0.63 -15.54,5.42q-7.15,3.95 -28.92,11.51q-31.31,10.88 -63.5,18.19q-4.67,1.06 -9.18,1.93q-4.62,0.89 -9.19,2.07q7.78,-16.36 10.46,-21.75q1.29,-2.61 3.97,-6.34q-0.39,5.98 2.63,9.23a1.13,1.13 0 0 0 1.81,-0.21c3.97,-7.08 7.2,-13.96 12.02,-20.86q10.45,-14.96 20.79,-24.85q18.76,-17.91 42.34,-32.73q19.46,-12.24 47.96,-25.7q14.94,-7.06 26.86,-10.92z" fill="#f74739"/>
  <path id="svg_113" d="m488.9,144q-0.71,1.9 -0.71,3.73q-1.91,-1.27 0.71,-3.73z" fill="#7ce9fe"/>
  <path id="svg_115" d="m445.15,160.53q-6.65,8.16 -12.8,13.32q-11.06,9.26 -19.56,14.48q-5.24,3.22 -10.52,6.45q-3.32,2.03 -6.67,3.74q-3.36,1.7 -6.86,3.34q-8.48,3.94 -16.73,8.55q-0.32,0.18 -0.09,0.45q0.12,0.13 0.39,0.24q-0.08,0.28 -1.04,0.35l-4.29,0.38q-0.82,0.08 -0.28,-0.54c2.66,-3.11 5.46,-5.52 9.1,-7.93q25.25,-16.69 52.29,-32.29c3.73,-2.15 7.39,-5.5 11.27,-7.47q4.4,-2.24 5.79,-3.07z" fill="#c22a27"/>
  <path id="svg_116" d="m267.58,170.45q12.88,5.39 19.81,12.42q10.42,10.57 16.45,24.36q0.64,1.47 -0.08,2.77q-3.62,6.47 -6.38,13.21q-4.29,10.5 -8.81,21.2a0.51,0.51 0 0 1 -0.73,0.24l-6.41,-3.71q3.44,-18.66 0.19,-37.12q-1.08,-6.15 -3.98,-12.78q-4.39,-10.02 -10.06,-20.59z" fill="#0477ae"/>
  <path id="svg_117" d="m469.86,181.88l-15.1,2.41a0.38,0.38 0 0 1 -0.33,-0.65l11.87,-11.39a0.38,0.38 0 0 1 0.62,0.14l3.23,8.99a0.38,0.38 0 0 1 -0.29,0.5z" fill="#e2fbff"/>
  <path id="svg_120" d="m420.33,266.67a0.26,0.25 -37.5 0 0 0.06,-0.44l-18.29,-13.69a0.22,0.22 0 0 1 0.06,-0.38q44.53,-16.36 73.15,-54.27q0.6,-0.8 0.87,0.16c8.97,31.94 10.39,65.66 6.34,98.83q-0.11,0.89 -1,0.89q-80.28,-0.05 -154.81,0c-2.14,0 -3.71,-1.14 -5.34,-2.37q-4.42,-3.35 -8.78,-6.61a0.42,0.42 0 0 1 0.11,-0.74q10.91,-3.67 20.12,-8.26q1.52,-0.76 2.98,-0.76q27.8,-0.07 40.1,-1.61c15.36,-1.92 30.18,-4.98 44.43,-10.75z" fill="#e2fbff"/>
  <path id="svg_121" d="m440.53,205.74q-12.71,1.34 -25.51,2.26q-6.57,0.47 -13.49,1.22q-6.74,0.73 -13.5,1.26q-6.63,0.53 -15.78,1.91q-0.75,0.11 -0.98,-0.94q0.96,-0.07 1.04,-0.35c20.82,-3.23 41.17,-6.36 62.72,-7.99q4.79,-0.36 7.95,-0.35q0.78,0 0.21,0.53l-2.66,2.45z" fill="#fba8a2"/>
  <path id="svg_122" d="m434.5,210.26q-5.4,4.97 -13.27,9.73q-29.35,17.73 -62.77,23.96q-6.58,1.23 -12.94,2.37q-3.92,0.7 -0.15,2q14.51,4.98 31.6,9.53q0.56,0.15 0.83,0.66q0.31,0.59 -0.35,0.67c-6.49,0.78 -12.85,1.6 -19.23,1.75c-10.69,0.25 -20.94,0.48 -31.45,1.59c-1.31,0.14 -3.43,1.03 -4.84,1.72q-19.1,9.44 -39.18,16.66q-0.31,0.11 -0.4,-0.21q-0.1,-0.39 0.24,-0.58q6.48,-3.63 11.8,-9.82q7.1,-8.27 10.31,-14.56q2.5,-4.88 3.47,-6.35q4.57,-1.18 9.19,-2.07q4.51,-0.87 9.18,-1.93q32.19,-7.31 63.5,-18.19q21.77,-7.56 28.92,-11.51q8.64,-4.79 15.54,-5.42z" fill="#c22a27"/>
  <circle id="svg_123" r="10.48" cy="231.67" cx="225.5" fill="#feffff"/>
  <path id="svg_124" d="m280.37,244.79q-7.8,14.59 -10.42,17.91c-11.27,14.27 -27.32,24.2 -45.39,26.71c-9.79,1.36 -19.86,1.94 -29.22,-0.6q-8.08,-2.19 -14.03,-5.12q-3.36,-1.65 -8.58,-5.34q-0.79,-0.57 -0.29,-1.22q0.41,-0.52 1.67,-1.1q3.55,-0.96 7.4,-2.27c4.12,-1.4 8.86,-4.32 10.25,-8.67c0.45,-1.43 1.65,-2.08 2.99,-2.47q6.83,-1.98 12.95,-3.87a2.38,2.37 53.9 0 1 2.08,0.33q1.73,1.22 3.57,2.45c10.42,7.02 23.17,4.35 31.92,-3.88q5.36,-5.04 6.77,-13.49q0.17,-1.01 1.17,-1.21q11.54,-2.34 22.29,-0.24q2.55,0.5 4.87,2.08z" fill="#ffce99"/>
  <path id="svg_125" d="m280.37,244.79q3.62,1.1 5.14,3.03q0.31,0.39 0.08,0.82c-7.52,14.35 -19.58,28.66 -33.53,36.53q-4.11,2.32 -8.49,4.51a1.44,1.43 66.2 0 0 -0.69,1.79l7.29,18.96q-3.81,2.96 -7.41,3.81q-10.37,2.44 -22.77,0.79c-3.51,-0.47 -12.29,-1.16 -14.32,-4.33a0.92,0.84 -14.9 0 0 -0.75,-0.39q-0.11,0.01 -0.31,0.72l-0.4,-10.99q-0.02,-0.62 0.59,-0.58q1.28,0.07 2.56,-0.06q4.78,-0.47 0.07,-1.41q-24.82,-4.95 -44.22,-21.32q-0.35,-0.3 0.11,-0.31l10.79,-0.33q-1.26,0.58 -1.67,1.1q-0.5,0.65 0.29,1.22q5.22,3.69 8.58,5.34q5.95,2.93 14.03,5.12c9.36,2.54 19.43,1.96 29.22,0.6c18.07,-2.51 34.12,-12.44 45.39,-26.71q2.62,-3.32 10.42,-17.91z" fill="#d69161"/>
  <path id="svg_126" d="m168.06,248.71q-12.77,9.72 -26.32,17q-0.77,-0.38 -0.37,-0.91q6.84,-8.94 14.97,-16.7q1.23,-1.17 2.91,-1.15q4.57,0.06 8.81,1.76z" fill="#feffff"/>
  <path id="svg_127" d="m168.06,248.71q8.69,3.72 15.96,10.53q0.89,0.84 1.56,1.84a0.64,0.63 -33.6 0 1 -0.18,0.87c-3.76,2.48 -8.28,3.98 -12.76,4.61q-13.26,1.89 -26.64,0.12q-2.41,-0.32 -4.26,-0.97q13.55,-7.28 26.32,-17z" fill="#2f4d73"/>
  <path id="svg_128" d="m11.46,284.76l3.46,23.93l-3.46,-23.93z" fill="#2f4d73"/>
  <path id="svg_129" d="m365.46,342.41q-3.19,2.07 -5.21,2.82c-16.24,6.04 -34.36,7.95 -51.26,4.17q-10.48,-2.34 -16.69,-4.97q-5.66,-2.4 -15.28,-8.95q-1.19,-0.8 -2.69,-1.18q-1.74,-0.43 -3.11,-1.75q-0.08,-0.08 -0.08,-0.19q-0.01,-0.14 0,-0.28q0,-0.2 -0.16,-0.32l-4.04,-3.01c-5.31,-5.94 -10.48,-12.45 -13.13,-20.05a0.7,0.7 0 0 1 0.55,-0.92c12.62,-1.98 24.38,-6.16 36.17,-11.43a1.89,1.89 0 0 1 2.18,0.45q2.83,3.09 6.05,5.92q14.06,12.3 32.35,21.87q16.85,8.82 34.35,17.82z" fill="#0a9ee0"/>
  <path id="svg_130" d="m250.17,310.43q20.69,40.47 65.23,52.04q0.35,1.35 -1.62,1.54q-1.24,0.12 -1.97,0.44c-2.87,1.28 -5.61,2.58 -8.63,3.36c-21.27,5.47 -45.41,3.47 -64.56,-7.66q-8.77,-5.11 -15.74,-13.08q-2.13,-2.45 -6.24,-8.51q-2.94,-4.35 -6.13,-8.63q-3.88,-9.16 -5.9,-18.9q0.2,-0.71 0.31,-0.72a0.92,0.84 -14.9 0 1 0.75,0.39c2.03,3.17 10.81,3.86 14.32,4.33q12.4,1.65 22.77,-0.79q3.6,-0.85 7.41,-3.81z" fill="#ffce99"/>
  <path id="svg_132" d="m192.58,336.24q-1.64,0.62 -6.33,0.62q-90.27,0.07 -113.5,0.01q-12.8,-0.03 -21.68,0.42l-3.22,-11.52q-0.14,-0.51 0.39,-0.51q67.86,0.01 129.51,-0.22q5.37,-0.02 10.68,-0.06a0.47,0.45 -8.5 0 1 0.44,0.31l3.71,10.95z" fill="#feffff"/>
  <path id="svg_133" d="m472.89,337.19q-1.17,0.22 -2.63,-0.04q-1.67,-0.29 -2.56,-0.29q-30.19,0.08 -59.42,-0.08q-3.33,-0.01 -6.55,0.16q-5.69,0.3 -11.46,-1.01q-0.52,-0.12 -0.94,0.2l-1.14,0.88l-18.4,-11.25q-1.36,-0.84 0.24,-0.76q6.1,0.32 12.72,0.32q46.39,0.04 92.78,-0.08q0.5,0 0.43,0.5q-0.76,5.72 -3.07,11.45z" fill="#feffff"/>
  <path id="svg_134" d="m266.94,328.75l4.04,3.01q0.16,0.12 0.16,0.32q-0.01,0.14 0,0.28q0,0.11 0.08,0.19q1.37,1.32 3.11,1.75q1.5,0.38 2.69,1.18q9.62,6.55 15.28,8.95q6.21,2.63 16.69,4.97c16.9,3.78 35.02,1.87 51.26,-4.17q2.02,-0.75 5.21,-2.82l12.67,6.74a0.57,0.57 0 0 1 0,1q-14.29,7.55 -29.84,10.72q-7.03,1.44 -15.06,0.81q-19.62,-1.52 -37.74,-10.21q-16.8,-8.07 -28.55,-22.72z" fill="#0477ae"/>
  <path id="svg_135" d="m210.51,329.93q3.19,4.28 6.13,8.63q4.11,6.06 6.24,8.51q6.97,7.97 15.74,13.08c19.15,11.13 43.29,13.13 64.56,7.66c3.02,-0.78 5.76,-2.08 8.63,-3.36q0.73,-0.32 1.97,-0.44q1.97,-0.19 1.62,-1.54q12.18,3.05 24.93,3.65q0.52,0.02 0.97,0.32a0.51,0.51 0 0 1 -0.01,0.85c-22.39,14.29 -49.93,18.79 -75.67,11.14q-12.9,-3.83 -21.73,-9.27c-14.25,-8.77 -27.71,-22.93 -33.38,-39.23z" fill="#d69161"/>
  <path id="svg_136" d="m192.58,336.24q4.06,9 5.82,12.09q5.46,9.57 13.33,18.26q-7.46,-0.12 -27.48,0.35q-1.14,0.03 -5.37,-0.52q-0.53,-0.06 -0.68,0.19q-0.18,0.29 -0.03,0.87q-3.72,-1.57 -7.3,-3.2q-12.2,-5.55 -25.62,-6.11q-17.38,-0.73 -31.12,5.34q-4.08,1.81 -6.99,3.03q-11.19,0.31 -24.39,0q-8.8,-0.21 -19.35,0.7q-7.15,-14.19 -12.33,-29.95q8.88,-0.45 21.68,-0.42q23.23,0.06 113.5,-0.01q4.69,0 6.33,-0.62z" fill="#7ce9fe"/>
  <path id="svg_137" d="m472.89,337.19q-2.79,10.04 -7.22,19.8q-1.25,-1.07 -1.82,0.31a1.81,1.79 6.4 0 1 -1.39,1.1q-11.09,1.72 -20.39,8.52q-0.24,-0.58 -0.32,-0.59q-9.29,-0.23 -18.81,0.97q-4.58,-5.13 -10.11,-10.64q-11.24,-11.21 -24.64,-19.65l1.14,-0.88q0.42,-0.32 0.94,-0.2q5.77,1.31 11.46,1.01q3.22,-0.17 6.55,-0.16q29.23,0.16 59.42,0.08q0.89,0 2.56,0.29q1.46,0.26 2.63,0.04z" fill="#7ce9fe"/>
  <path id="svg_138" d="m425.73,418.11q0.38,-4.6 -0.83,-7.07q-0.46,-0.94 -2.46,-3.3q-1.42,-1.67 -2.49,-3.28q-3.8,-5.74 -7.6,-11.23a78.03,2.59 54.1 0 1 -5.14,-7.45q-2.78,-4.06 -5.99,-8.02q-5.37,-6.61 -21.01,-21.81l3.04,-2.71a1.82,1.82 0 0 1 2.3,-0.1q16.98,12.67 28.39,29.05c5.09,7.31 9.07,14.34 11.81,22.65q2.8,8.51 4.48,16.52q0.33,1.58 -0.81,0.44l-3.69,-3.69z" fill="#0a9ee0"/>
  <path id="svg_139" d="m380.21,355.95q15.64,15.2 21.01,21.81q3.21,3.96 5.99,8.02a78.03,2.59 54.1 0 0 5.14,7.45q3.8,5.49 7.6,11.23q1.07,1.61 2.49,3.28q2,2.36 2.46,3.3q1.21,2.47 0.83,7.07q-8.09,-5.91 -12.29,-10.3c-9.9,-10.37 -17.98,-18.84 -28.29,-26.58a0.56,0.56 0 0 0 -0.88,0.29q-0.11,0.39 -0.07,0.79q1.22,13.85 1.06,26.36c-0.09,7.74 -0.08,15.59 -1.96,23.23a0.49,0.49 0 0 1 -0.87,0.17q-18.1,-24.66 -25.04,-55.07a1.32,1.32 0 0 1 0.52,-1.36c5.37,-3.87 10.17,-7.68 15.09,-12.6q3.86,-3.85 7.21,-7.09z" fill="#0477ae"/>
  <path id="svg_140" d="m465.67,356.99l-5.74,12.54q-14.16,-0.48 -26.29,4.86q-0.69,0.3 -1,-0.03a0.48,0.48 0 0 1 0.07,-0.71l9.36,-6.73q9.3,-6.8 20.39,-8.52a1.81,1.79 6.4 0 0 1.39,-1.1q0.57,-1.38 1.82,-0.31z" fill="#feffff"/>
  <path id="svg_141" d="m178.17,367.48q10.7,6.59 19.53,15.37a0.65,0.64 -46.7 0 1 0.02,0.89l-0.21,0.23q-0.15,0.17 -0.32,0.02q-4.65,-3.98 -7.25,-5.04q-8.08,-3.29 -15.16,-5.78q-26.44,-9.3 -53.6,-3.36q-12.72,2.79 -26.22,8.38q-4.87,2.02 -9.36,4.62a0.5,0.5 0 0 1 -0.67,-0.16l-0.14,-0.22q-0.09,-0.14 0.04,-0.25q5.29,-3.95 10.26,-8.35q2.65,-2.33 12.05,-7.29q2.91,-1.22 6.99,-3.03q13.74,-6.07 31.12,-5.34q13.42,0.56 25.62,6.11q3.58,1.63 7.3,3.2z" fill="#feffff"/>
  <path id="svg_142" d="m107.14,366.54q-9.4,4.96 -12.05,7.29q-4.97,4.4 -10.26,8.35q-0.13,0.11 -0.04,0.25l0.14,0.22a0.5,0.5 0 0 0 0.67,0.16q4.49,-2.6 9.36,-4.62q13.5,-5.59 26.22,-8.38q27.16,-5.94 53.6,3.36q7.08,2.49 15.16,5.78q2.6,1.06 7.25,5.04q0.17,0.15 0.32,-0.02l0.21,-0.23a0.65,0.64 -46.7 0 0 -0.02,-0.89q-8.83,-8.78 -19.53,-15.37q-0.15,-0.58 0.03,-0.87q0.15,-0.25 0.68,-0.19q4.23,0.55 5.37,0.52q20.02,-0.47 27.48,-0.35q6.48,7.36 16.62,14.31q11.17,7.66 22.58,11.82q-2.26,0.06 -10.18,-0.23q-11.75,-0.43 -49.75,0.77q-10.3,0.33 -20,0.27q-30.88,-0.17 -61.25,-0.26q-12.39,-0.03 -24.76,-0.71q-3.45,-0.18 -7.11,-0.09q-8.25,-11.93 -14.48,-25.23q10.55,-0.91 19.35,-0.7q13.2,0.31 24.39,0z" fill="#078ace"/>
  <path id="svg_143" d="m442.07,366.92l-9.36,6.73a0.48,0.48 0 0 0 -0.07,0.71q0.31,0.33 1,0.03q12.13,-5.34 26.29,-4.86q-7.97,15.52 -17.88,29.86q-0.53,0.77 -0.84,-0.11q-3.2,-9.1 -8.61,-17.62q-4.41,-6.94 -9.66,-14.36q9.52,-1.2 18.81,-0.97q0.08,0.01 0.32,0.59z" fill="#078ace"/>
  <path id="svg_144" d="m355.41,413.68q-20.97,5.86 -41.41,12.29c-17.66,5.55 -35.95,7.46 -54.81,6.68q-22.85,-0.93 -44.48,-8.15q-8.38,-2.8 -18.06,-5.92q-37.43,-12.1 -75.6,-2.69q-2.98,0.74 -7.13,2.35q-5.54,2.15 -11.67,4.36q-13.34,-13.99 -24.37,-30.13q3.66,-0.09 7.11,0.09q12.37,0.68 24.76,0.71q30.37,0.09 61.25,0.26q9.7,0.06 20,-0.27q38,-1.2 49.75,-0.77q7.92,0.29 10.18,0.23q3.76,1.29 7.67,2.61q3.15,1.06 6.4,1.78q3.24,0.72 6.49,1.33q3.02,0.57 6.97,0.74c0.86,0.03 1.48,0.4 2.39,0.43q6.32,0.2 12.65,0.18c17.89,-0.07 34.91,-5.1 50.83,-12.66a0.22,0.21 -20.4 0 1 0.3,0.13c1.93,6.07 3.96,11.83 6.7,17.69q1.93,4.14 4.08,8.73z" fill="#10c2f1"/>
  <path id="svg_146" d="m411.73,432.18q-8.04,-4.47 -16.69,-7.43l2.05,-14.89q0.07,-0.48 0.41,-0.14c5.94,5.96 12.17,11.64 17.55,18.09a0.96,0.96 0 0 1 -0.07,1.31l-3.25,3.06z" fill="#feffff"/>
  <path id="svg_147" d="m355.41,413.68l5.09,10.16q-0.67,0.48 -1.82,0.5q-0.99,0.02 -1.9,0.22c-14.35,3.09 -28.43,7.79 -42.01,11.72q-17.52,5.07 -36.32,5.87c-19.09,0.8 -38.18,-0.41 -56.52,-5.39q-11.79,-3.21 -26.67,-8.12q-12.59,-4.16 -27.53,-5.89q-25.49,-2.94 -50.21,5.08q-2.64,0.85 -6.85,3.17l-8.42,-8.4q6.13,-2.21 11.67,-4.36q4.15,-1.61 7.13,-2.35q38.17,-9.41 75.6,2.69q9.68,3.12 18.06,5.92q21.63,7.22 44.48,8.15c18.86,0.78 37.15,-1.13 54.81,-6.68q20.44,-6.43 41.41,-12.29z" fill="#feffff"/>
  <path id="svg_148" d="m360.5,423.84q3.07,4.93 6.12,10.29q2.34,4.1 13.93,18.11q-3.29,-0.89 -5.31,-0.22c-9.49,3.16 -19.24,7.32 -28.21,9.89q-34.57,9.88 -70.38,10.57q-10.2,0.2 -20.2,0q-17.24,-0.34 -33.18,-3.04q-16.53,-2.81 -32.8,-6.85q-6.93,-1.72 -12.56,-3.65q-8.41,-2.87 -12.45,-4q-9.46,-2.63 -18.72,-5.44q-8.01,-2.43 -16.47,-3.11q-10.31,-6.65 -19.6,-15.39q4.21,-2.32 6.85,-3.17q24.72,-8.02 50.21,-5.08q14.94,1.73 27.53,5.89q14.88,4.91 26.67,8.12c18.34,4.98 37.43,6.19 56.52,5.39q18.8,-0.8 36.32,-5.87c13.58,-3.93 27.66,-8.63 42.01,-11.72q0.91,-0.2 1.9,-0.22q1.15,-0.02 1.82,-0.5z" fill="#078ace"/>
  <path id="svg_149" d="m395.04,424.75q8.65,2.96 16.69,7.43q-0.92,1.2 -2.89,2.92q-7.09,6.2 -15.83,12.65q-2.45,1.82 -4.36,3.92q-0.21,0.24 -0.5,0.05a0.41,0.41 0 0 1 -0.18,-0.48q4.33,-13.34 7.07,-26.49z" fill="#078ace"/>
  <path id="svg_150" d="m130.27,446.39q8.46,0.68 16.47,3.11q9.26,2.81 18.72,5.44q4.04,1.13 12.45,4q5.63,1.93 12.56,3.65q16.27,4.04 32.8,6.85q15.94,2.7 33.18,3.04q10,0.2 20.2,0q35.81,-0.69 70.38,-10.57c8.97,-2.57 18.72,-6.73 28.21,-9.89q2.02,-0.67 5.31,0.22q1.44,1.26 1.8,3.19q0.09,0.49 -0.34,0.76q-12.14,7.37 -26.02,14q-38.02,18.14 -79.25,20.07c-52.37,2.44 -105.18,-11.27 -146.47,-43.87z" fill="#036bab"/>
  <path id="svg_100" d="m356.9,61.66q0.02,-0.47 -0.45,-0.44q-16.98,1.19 -32.33,3.31c-50.84,7.02 -100.49,33.96 -124.62,80.45a2.31,2.31 0 0 1 -1.56,1.19c-24.34,5.37 -44.88,24.12 -54.73,46.3q-9.19,20.7 -6.27,44.56q0.06,0.49 -0.18,0.92q-1.22,2.12 -2.86,3.95q-13.72,15.28 -24.79,27.79q-0.37,0.42 0.11,0.7q2.62,1.5 4.81,2.57c16.29,7.88 32.31,16.47 47.82,23.93q0.19,0.09 0.32,0.24q0.47,0.57 -0.27,0.57l-119.85,0.06a0.61,0.6 -4.9 0 1 -0.61,-0.51c-3.45,-23.09 -3.82,-47.03 -0.48,-70.09q9.18,-63.26 50.23,-113.25q14.26,-17.36 31.08,-31.33c51.07,-42.42 119.07,-60.7 184.22,-46.92q33.07,7 61.65,23.01c18.2,10.19 36.17,23.05 50.7,38.3q0.4,0.42 -0.11,0.69q-23.25,12.19 -44.24,27.61c-22.04,16.2 -42.94,37.12 -57.91,60.65a0.2,0.2 0 0 1 -0.35,-0.02q-4.86,-9.24 -12.17,-18.1q-0.81,-0.98 0.26,-1.68q3.75,-2.42 7.3,-5.58c28.09,-24.96 43.37,-61.49 45.28,-98.88z" fill="#e2fbff"/>
  <path id="svg_99" d="m433.1,71.25l14.54,14.3q0.62,0.62 1.42,0.26l11.3,-5.11q2.01,-1.37 4.62,-1.94q2.36,-0.2 4.37,-1.77q0.18,-0.44 0.86,-0.68q19.49,-6.95 39.43,-12.5q3.39,-0.95 6.85,-1.61q0.87,-0.17 1.89,0.81l-0.59,8.25q-2,10.31 -4.41,20.63q-0.81,3.48 -2.2,7.09q-1.32,3.47 -2.63,6.95q-7.56,20.23 -19.65,38.07q-2.62,2.46 -0.71,3.73c0.33,1.02 0.43,2.01 0.86,2.99q12.72,29.69 19.05,60.34q1.73,8.41 3.16,20.66q1.21,10.39 1.41,20.02q0.3,14.08 -0.15,26.51c-0.35,9.47 -2.15,18.89 -3.48,28.34q-0.76,5.34 -1.93,10.78q-3.8,17.53 -8.39,31q-3.3,9.7 -8.42,21.93q-6.11,14.58 -16.36,30.82q-9.4,14.39 -17.45,24.37q-10.61,13.17 -25.16,26.84q-13.72,12.89 -29.3,23.37l-7.06,4.83q-12.3,7.91 -25.85,14.05q-22.98,10.42 -47.16,16.84q-5.61,1.49 -10.57,2.32c-4.73,0.8 -9.46,1.93 -14.29,2.28c-8.73,0.64 -17.01,1.72 -25.84,1.93q-22.64,0.54 -42.76,-1.73q-6.68,-0.75 -15.79,-2.74l-13.42,-3.41l-16.87,-5.12l-10.69,-4.04q-0.07,0.39 -0.82,-0.12q-3.16,-1.81 -6.51,-3.2q-6.38,-2.65 -6.45,-2.68q-27.98,-12.88 -52.25,-31.8c-4.47,-3.49 -8.83,-7.48 -13.03,-11.3q-24.53,-22.3 -43.1,-52.62q-17.7,-28.89 -26.87,-58.76q-1.95,-6.33 -3.46,-12.38q-1.62,-6.51 -3.09,-12.88q-0.2,-0.89 -0.23,-1.85q-0.04,-1.05 -0.59,-1.82q-0.69,-1.34 -0.41,-2.81l-3.46,-23.93q-1.52,-21.23 -0.56,-44.26q0.15,-3.4 0.6,-5.54q0.5,-4.21 1.26,-8.34q0.82,-4.48 1.28,-8.31q1.11,-9.43 2.76,-14.8q1.39,-4.55 1.58,-7.32q0.07,-0.74 0.4,-1.03l4.73,-15.44l0.95,-2.63q0.17,-0.49 0.19,-1.02q0.03,-0.86 0.64,-1.52a2.37,2.35 -14.3 0 0 0.49,-0.82l5.07,-14.47q12.24,-29.04 31.36,-54.31q1.44,-0.64 2.22,-2.53l7.07,-8.88l20.39,-21.82q1.01,-1.23 2.31,-1.94q5.04,-3.36 8.66,-7.77q44.17,-36.71 99.79,-50.79c6.68,-1.69 13.73,-2.98 20.58,-4.15q11.02,-1.86 27.88,-2.76q15.92,-0.85 27.96,0.01q20.21,1.45 36.82,5.02q9.62,2.06 19.31,5.16q54.95,17.56 97.9,56.75zm-76.2,-9.59c-1.91,37.39 -17.19,73.92 -45.28,98.88q-3.55,3.16 -7.3,5.58q-1.07,0.7 -0.26,1.68q7.31,8.86 12.17,18.1a0.2,0.2 0 0 0 0.35,0.02c14.97,-23.53 35.87,-44.45 57.91,-60.65q20.99,-15.42 44.24,-27.61q0.51,-0.27 0.11,-0.69c-14.53,-15.25 -32.5,-28.11 -50.7,-38.3q-28.58,-16.01 -61.65,-23.01c-65.15,-13.78 -133.15,4.5 -184.22,46.92q-16.82,13.97 -31.08,31.33q-41.05,49.99 -50.23,113.25c-3.34,23.06 -2.97,47 0.48,70.09a0.61,0.6 -4.9 0 0 0.61,0.51l119.85,-0.06q0.74,0 0.27,-0.57q-0.13,-0.15 -0.32,-0.24c-15.51,-7.46 -31.53,-16.05 -47.82,-23.93q-2.19,-1.07 -4.81,-2.57q-0.48,-0.28 -0.11,-0.7q11.07,-12.51 24.79,-27.79q1.64,-1.83 2.86,-3.95q0.24,-0.43 0.18,-0.92q-2.92,-23.86 6.27,-44.56c9.85,-22.18 30.39,-40.93 54.73,-46.3a2.31,2.31 0 0 0 1.56,-1.19c24.13,-46.49 73.78,-73.43 124.62,-80.45q15.35,-2.12 32.33,-3.31q0.47,-0.03 0.45,0.44zm-32.38,26.12q-5.73,0.36 -13.27,2.17c-39.29,9.45 -73.56,30.23 -93.62,65.5q-1.94,3.4 -3.46,7.01q-0.18,0.44 -0.65,0.55q-1.26,0.27 -2.51,0.53c-11.76,2.41 -23.59,7.77 -32.61,15.81c-12.74,11.36 -20.67,27.26 -21.51,44.4q-0.4,8.11 0.83,16.75q0.2,1.41 1.03,1.55c2.35,0.75 4.72,0.83 6.91,1.74c3.87,1.58 7.98,2.94 11.57,5.21q6.23,3.92 11.84,9.72c0.77,0.8 1.69,1.24 2.77,0.76q6.21,-2.8 13.18,-4.58q0.64,-0.17 0.39,-0.78q-0.91,-2.15 -1.91,-4.26c-2.29,-4.83 -2.93,-10.36 -2.24,-15.7q1.83,-13.97 15.07,-19.73q8.92,-3.89 17.35,-0.78q17.3,6.38 18.85,24.96a0.76,0.75 -9.6 0 0 0.95,0.67q14.93,-3.83 27.95,1.66l6.41,3.71a0.51,0.51 0 0 0 0.73,-0.24q4.52,-10.7 8.81,-21.2q2.76,-6.74 6.38,-13.21q0.72,-1.3 0.08,-2.77q-6.03,-13.79 -16.45,-24.36q-6.93,-7.03 -19.81,-12.42q-3.64,-2.4 -10.14,-3.52q-0.23,-0.52 -0.28,-0.79q-0.05,-0.25 0.18,-0.33q14.7,-5.3 25.27,-11.91c16.76,-10.47 30.48,-26.33 38.51,-44.96c3.08,-7.16 5.47,-13.24 6.86,-20.62q0.12,-0.68 -0.56,-0.81q-1.86,-0.35 -2.9,0.27zm-1.92,133.51q-2.68,3.73 -3.97,6.34q-2.68,5.39 -10.46,21.75q-0.97,1.47 -3.47,6.35q-3.21,6.29 -10.31,14.56q-5.32,6.19 -11.8,9.82q-0.34,0.19 -0.24,0.58q0.09,0.32 0.4,0.21q20.08,-7.22 39.18,-16.66c1.41,-0.69 3.53,-1.58 4.84,-1.72c10.51,-1.11 20.76,-1.34 31.45,-1.59c6.38,-0.15 12.74,-0.97 19.23,-1.75q0.66,-0.08 0.35,-0.67q-0.27,-0.51 -0.83,-0.66q-17.09,-4.55 -31.6,-9.53q-3.77,-1.3 0.15,-2q6.36,-1.14 12.94,-2.37q33.42,-6.23 62.77,-23.96q7.87,-4.76 13.27,-9.73q3.72,-2 6.03,-4.52l2.66,-2.45q0.57,-0.53 -0.21,-0.53q-3.16,-0.01 -7.95,0.35c-21.55,1.63 -41.9,4.76 -62.72,7.99q-0.27,-0.11 -0.39,-0.24q-0.23,-0.27 0.09,-0.45q8.25,-4.61 16.73,-8.55q3.5,-1.64 6.86,-3.34q3.35,-1.71 6.67,-3.74q5.28,-3.23 10.52,-6.45q8.5,-5.22 19.56,-14.48q6.15,-5.16 12.8,-13.32q2.08,-1.96 4.15,-4.23q16.47,-18.04 27.71,-41.05l6.7,-15.13a0.27,0.26 3.6 0 0 -0.32,-0.36q-43.64,13.77 -82.72,39.45q-24.34,16.01 -44.01,35.95q-20.53,20.82 -34.06,46.13zm147.26,-39.41a0.38,0.38 0 0 0 0.29,-0.5l-3.23,-8.99a0.38,0.38 0 0 0 -0.62,-0.14l-11.87,11.39a0.38,0.38 0 0 0 0.33,0.65l15.1,-2.41zm-49.53,84.79c-14.25,5.77 -29.07,8.83 -44.43,10.75q-12.3,1.54 -40.1,1.61q-1.46,0 -2.98,0.76q-9.21,4.59 -20.12,8.26a0.42,0.42 0 0 0 -0.11,0.74q4.36,3.26 8.78,6.61c1.63,1.23 3.2,2.37 5.34,2.37q74.53,-0.05 154.81,0q0.89,0 1,-0.89c4.05,-33.17 2.63,-66.89 -6.34,-98.83q-0.27,-0.96 -0.87,-0.16q-28.62,37.91 -73.15,54.27a0.22,0.22 0 0 0 -0.06,0.38l18.29,13.69a0.26,0.25 -37.5 0 1 -0.06,0.44zm-184.35,-35a10.48,10.48 0 0 0 -10.48,-10.48a10.48,10.48 0 0 0 -10.48,10.48a10.48,10.48 0 0 0 10.48,10.48a10.48,10.48 0 0 0 10.48,-10.48zm-61.87,44.36l-10.79,0.33q-0.46,0.01 -0.11,0.31q19.4,16.37 44.22,21.32q4.71,0.94 -0.07,1.41q-1.28,0.13 -2.56,0.06q-0.61,-0.04 -0.59,0.58l0.4,10.99q2.02,9.74 5.9,18.9c5.67,16.3 19.13,30.46 33.38,39.23q8.83,5.44 21.73,9.27c25.74,7.65 53.28,3.15 75.67,-11.14a0.51,0.51 0 0 0 0.01,-0.85q-0.45,-0.3 -0.97,-0.32q-12.75,-0.6 -24.93,-3.65q-44.54,-11.57 -65.23,-52.04l-7.29,-18.96a1.44,1.43 66.2 0 1 0.69,-1.79q4.38,-2.19 8.49,-4.51c13.95,-7.87 26.01,-22.18 33.53,-36.53q0.23,-0.43 -0.08,-0.82q-1.52,-1.93 -5.14,-3.03q-2.32,-1.58 -4.87,-2.08q-10.75,-2.1 -22.29,0.24q-1,0.2 -1.17,1.21q-1.41,8.45 -6.77,13.49c-8.75,8.23 -21.5,10.9 -31.92,3.88q-1.84,-1.23 -3.57,-2.45a2.38,2.37 53.9 0 0 -2.08,-0.33q-6.12,1.89 -12.95,3.87c-1.34,0.39 -2.54,1.04 -2.99,2.47c-1.39,4.35 -6.13,7.27 -10.25,8.67q-3.85,1.31 -7.4,2.27zm-32.37,-10.32q1.85,0.65 4.26,0.97q13.38,1.77 26.64,-0.12c4.48,-0.63 9,-2.13 12.76,-4.61a0.64,0.63 -33.6 0 0 0.18,-0.87q-0.67,-1 -1.56,-1.84q-7.27,-6.81 -15.96,-10.53q-4.24,-1.7 -8.81,-1.76q-1.68,-0.02 -2.91,1.15q-8.13,7.76 -14.97,16.7q-0.4,0.53 0.37,0.91zm125.2,63.04q11.75,14.65 28.55,22.72q18.12,8.69 37.74,10.21q8.03,0.63 15.06,-0.81q15.55,-3.17 29.84,-10.72a0.57,0.57 0 0 0 0,-1l-12.67,-6.74q-17.5,-9 -34.35,-17.82q-18.29,-9.57 -32.35,-21.87q-3.22,-2.83 -6.05,-5.92a1.89,1.89 0 0 0 -2.18,-0.45c-11.79,5.27 -23.55,9.45 -36.17,11.43a0.7,0.7 0 0 0 -0.55,0.92c2.65,7.6 7.82,14.11 13.13,20.05zm-215.87,8.54q5.18,15.76 12.33,29.95q6.23,13.3 14.48,25.23q11.03,16.14 24.37,30.13l8.42,8.4q9.29,8.74 19.6,15.39c41.29,32.6 94.1,46.31 146.47,43.87q41.23,-1.93 79.25,-20.07q13.88,-6.63 26.02,-14q0.43,-0.27 0.34,-0.76q-0.36,-1.93 -1.8,-3.19q-11.59,-14.01 -13.93,-18.11q-3.05,-5.36 -6.12,-10.29l-5.09,-10.16q-2.15,-4.59 -4.08,-8.73c-2.74,-5.86 -4.77,-11.62 -6.7,-17.69a0.22,0.21 -20.4 0 0 -0.3,-0.13c-15.92,7.56 -32.94,12.59 -50.83,12.66q-6.33,0.02 -12.65,-0.18c-0.91,-0.03 -1.53,-0.4 -2.39,-0.43q-3.95,-0.17 -6.97,-0.74q-3.25,-0.61 -6.49,-1.33q-3.25,-0.72 -6.4,-1.78q-3.91,-1.32 -7.67,-2.61q-11.41,-4.16 -22.58,-11.82q-10.14,-6.95 -16.62,-14.31q-7.87,-8.69 -13.33,-18.26q-1.76,-3.09 -5.82,-12.09l-3.71,-10.95a0.47,0.45 -8.5 0 0 -0.44,-0.31q-5.31,0.04 -10.68,0.06q-61.65,0.23 -129.51,0.22q-0.53,0 -0.39,0.51l3.22,11.52zm337.12,-0.28q13.4,8.44 24.64,19.65q5.53,5.51 10.11,10.64q5.25,7.42 9.66,14.36q5.41,8.52 8.61,17.62q0.31,0.88 0.84,0.11q9.91,-14.34 17.88,-29.86l5.74,-12.54q4.43,-9.76 7.22,-19.8q2.31,-5.73 3.07,-11.45q0.07,-0.5 -0.43,-0.5q-46.39,0.12 -92.78,0.08q-6.62,0 -12.72,-0.32q-1.6,-0.08 -0.24,0.76l18.4,11.25zm-7.98,18.94q-3.35,3.24 -7.21,7.09c-4.92,4.92 -9.72,8.73 -15.09,12.6a1.32,1.32 0 0 0 -0.52,1.36q6.94,30.41 25.04,55.07a0.49,0.49 0 0 0 0.87,-0.17c1.88,-7.64 1.87,-15.49 1.96,-23.23q0.16,-12.51 -1.06,-26.36q-0.04,-0.4 0.07,-0.79a0.56,0.56 0 0 1 0.88,-0.29c10.31,7.74 18.39,16.21 28.29,26.58q4.2,4.39 12.29,10.3l3.69,3.69q1.14,1.14 0.81,-0.44q-1.68,-8.01 -4.48,-16.52c-2.74,-8.31 -6.72,-15.34 -11.81,-22.65q-11.41,-16.38 -28.39,-29.05a1.82,1.82 0 0 0 -2.3,0.1l-3.04,2.71zm14.83,68.8q-2.74,13.15 -7.07,26.49a0.41,0.41 0 0 0 0.18,0.48q0.29,0.19 0.5,-0.05q1.91,-2.1 4.36,-3.92q8.74,-6.45 15.83,-12.65q1.97,-1.72 2.89,-2.92l3.25,-3.06a0.96,0.96 0 0 0 0.07,-1.31c-5.38,-6.45 -11.61,-12.13 -17.55,-18.09q-0.34,-0.34 -0.41,0.14l-2.05,14.89z" fill="#031834"/>
 </g>
</svg>